<svg xmlns="http://www.w3.org/2000/svg" version="1.1" xmlns:xlink="http://www.w3.org/1999/xlink" xmlns:svgjs="http://svgjs.dev/svgjs" viewBox="0 0 800 800" opacity="0.86"><defs><linearGradient x1="50%" y1="0%" x2="50%" y2="100%" id="cccoil-grad"><stop stop-color="hsl(37, 99%, 67%)" stop-opacity="1" offset="0%"></stop><stop stop-color="hsl(353, 98%, 41%)" stop-opacity="1" offset="100%"></stop></linearGradient></defs><g stroke="url(#cccoil-grad)" fill="none" stroke-linecap="round"><circle r="372" cx="400" cy="400" stroke-width="4" stroke-dasharray="2337 2337" transform="rotate(360, 400, 400)" stroke-dashoffset="1000" opacity="0.05"></circle><circle r="341" cx="400" cy="400" stroke-width="4" stroke-dasharray="1948 2143" transform="rotate(327, 400, 400)" stroke-dashoffset="1000" opacity="0.14"></circle><circle r="310" cx="400" cy="400" stroke-width="4" stroke-dasharray="1594 1948" transform="rotate(295, 400, 400)" stroke-dashoffset="1000" opacity="0.22"></circle><circle r="279" cx="400" cy="400" stroke-width="4" stroke-dasharray="1275 1753" transform="rotate(262, 400, 400)" stroke-dashoffset="1000" opacity="0.31"></circle><circle r="248" cx="400" cy="400" stroke-width="4" stroke-dasharray="992 1558" transform="rotate(229, 400, 400)" stroke-dashoffset="1000" opacity="0.40"></circle><circle r="217" cx="400" cy="400" stroke-width="4" stroke-dasharray="744 1363" transform="rotate(196, 400, 400)" stroke-dashoffset="1000" opacity="0.48"></circle><circle r="186" cx="400" cy="400" stroke-width="4" stroke-dasharray="531 1169" transform="rotate(164, 400, 400)" stroke-dashoffset="1000" opacity="0.57"></circle><circle r="155" cx="400" cy="400" stroke-width="4" stroke-dasharray="354 974" transform="rotate(131, 400, 400)" stroke-dashoffset="1000" opacity="0.65"></circle><circle r="124" cx="400" cy="400" stroke-width="4" stroke-dasharray="212 779" transform="rotate(98, 400, 400)" stroke-dashoffset="1000" opacity="0.74"></circle><circle r="93" cx="400" cy="400" stroke-width="4" stroke-dasharray="106 584" transform="rotate(65, 400, 400)" stroke-dashoffset="1000" opacity="0.83"></circle><circle r="62" cx="400" cy="400" stroke-width="4" stroke-dasharray="35 390" transform="rotate(33, 400, 400)" stroke-dashoffset="1000" opacity="0.91"></circle><circle r="31" cx="400" cy="400" stroke-width="4" stroke-dasharray="0 195" stroke-dashoffset="1000" opacity="1.00"></circle></g></svg>