<svg xmlns="http://www.w3.org/2000/svg" version="1.1" xmlns:xlink="http://www.w3.org/1999/xlink" xmlns:svgjs="http://svgjs.dev/svgjs" viewBox="0 0 800 800"><defs><linearGradient x1="50%" y1="0%" x2="50%" y2="100%" id="ffflurry-grad" gradientTransform="rotate(270)"><stop stop-color="#ffffff00" stop-opacity="1" offset="0%"></stop><stop stop-color="hsl(30, 100%, 50%)" stop-opacity="1" offset="45%"></stop><stop stop-color="hsl(30, 100%, 70%)" stop-opacity="1" offset="100%"></stop></linearGradient></defs><rect width="100%" height="100%" fill="#ffffff00"></rect><g fill="url(#ffflurry-grad)"><rect width="162" height="1" x="30" y="113.5" rx="0.5" transform="rotate(37, 111, 114)" opacity="0.61"></rect><rect width="149" height="1" x="557.5" y="500.5" rx="0.5" transform="rotate(37, 632, 501)" opacity="0.76"></rect><rect width="175" height="1" x="354.5" y="355.5" rx="0.5" transform="rotate(37, 442, 356)" opacity="0.99"></rect><rect width="112" height="1" x="40" y="666.5" rx="0.5" transform="rotate(37, 96, 667)" opacity="0.35"></rect><rect width="178" height="1" x="239" y="692.5" rx="0.5" transform="rotate(37, 328, 693)" opacity="0.09"></rect><rect width="105" height="1" x="361.5" y="91.5" rx="0.5" transform="rotate(37, 414, 92)" opacity="0.47"></rect><rect width="91" height="1" x="253.5" y="501.5" rx="0.5" transform="rotate(37, 299, 502)" opacity="0.78"></rect><rect width="167" height="1" x="14.5" y="389.5" rx="0.5" transform="rotate(37, 98, 390)" opacity="0.23"></rect><rect width="139" height="1" x="565.5" y="706.5" rx="0.5" transform="rotate(37, 635, 707)" opacity="0.86"></rect><rect width="163" height="1" x="591.5" y="189.5" rx="0.5" transform="rotate(37, 673, 190)" opacity="0.94"></rect><rect width="142" height="1" x="201" y="245.5" rx="0.5" transform="rotate(37, 272, 246)" opacity="0.19"></rect></g></svg>