<?xml version="1.0" standalone="no"?>
<!DOCTYPE svg PUBLIC "-//W3C//DTD SVG 20010904//EN"
 "http://www.w3.org/TR/2001/REC-SVG-20010904/DTD/svg10.dtd">
<svg version="1.0" xmlns="http://www.w3.org/2000/svg"
 width="1476.000000pt" height="1476.000000pt" viewBox="0 0 1476.000000 1476.000000"
 preserveAspectRatio="xMidYMid meet">

<g transform="translate(0.000000,1476.000000) scale(0.100000,-0.100000)"
fill="#B91C1C" stroke="none">
<path d="M7055 14429 c-55 -4 -167 -13 -250 -19 -919 -67 -1869 -338 -2705
-772 -1432 -744 -2564 -1949 -3214 -3421 -430 -974 -636 -2040 -596 -3094 10
-291 21 -435 46 -633 172 -1377 733 -2651 1634 -3715 939 -1108 2232 -1914
3639 -2269 596 -151 1120 -216 1746 -216 722 0 1374 97 2080 310 729 220 1523
623 2140 1086 386 289 833 704 1116 1034 619 721 1066 1507 1366 2395 218 648
338 1318 362 2028 34 1009 -165 2065 -569 3007 -34 80 -77 171 -96 202 -150
247 -505 286 -700 75 -89 -95 -124 -183 -124 -307 0 -95 7 -121 91 -317 271
-636 429 -1265 485 -1938 18 -220 21 -719 4 -940 -53 -735 -213 -1379 -513
-2071 -193 -446 -468 -904 -781 -1304 -629 -801 -1457 -1448 -2361 -1843 -827
-361 -1613 -527 -2504 -527 -305 0 -466 9 -736 41 -1374 162 -2649 779 -3620
1753 -503 505 -864 1003 -1172 1621 -146 292 -223 476 -325 775 -756 2230
-181 4688 1487 6355 837 836 1853 1395 3015 1659 398 91 771 136 1252 151 234
7 301 29 409 132 165 157 177 424 29 603 -123 147 -285 188 -635 159z"/>
<path d="M10195 14326 c-471 -78 -824 -457 -875 -938 -6 -58 -10 -1037 -10
-2625 0 -1393 -2 -2533 -5 -2533 -3 0 -38 28 -78 63 -405 352 -908 585 -1442
668 -169 27 -533 37 -701 20 -650 -66 -1247 -343 -1708 -791 -162 -157 -262
-277 -381 -455 -273 -408 -430 -845 -476 -1330 -17 -176 -6 -547 20 -701 41
-241 123 -515 218 -729 178 -399 489 -801 824 -1061 292 -228 630 -406 957
-503 123 -37 357 -85 497 -102 135 -17 503 -17 640 -1 331 40 713 156 983 298
846 445 1392 1226 1529 2189 16 111 17 409 22 3835 l6 3715 22 31 c32 45 85
68 139 60 59 -8 275 -79 402 -132 143 -60 334 -161 440 -232 245 -165 491
-307 683 -393 430 -193 870 -304 1340 -339 178 -13 242 -6 329 38 307 154 335
580 49 771 -77 51 -135 67 -294 81 -545 46 -1009 201 -1448 486 -323 209 -466
290 -690 392 -136 61 -468 174 -595 202 -115 26 -295 33 -397 16z m-2655
-6226 c374 -39 726 -181 1025 -415 90 -71 268 -250 336 -340 118 -154 229
-357 293 -533 32 -89 68 -234 92 -367 25 -136 25 -457 0 -600 -72 -423 -257
-785 -551 -1078 -294 -294 -640 -475 -1060 -554 -126 -23 -436 -28 -576 -9
-508 71 -932 304 -1256 690 -435 518 -567 1226 -352 1881 197 597 701 1081
1306 1255 248 71 503 95 743 70z"/>
</g>
</svg>
