<?xml version="1.0" standalone="no"?>
<!DOCTYPE svg PUBLIC "-//W3C//DTD SVG 20010904//EN"
 "http://www.w3.org/TR/2001/REC-SVG-20010904/DTD/svg10.dtd">
<svg version="1.0" xmlns="http://www.w3.org/2000/svg"
 width="3108.000000pt" height="885.000000pt" viewBox="0 0 3108.000000 885.000000"
 preserveAspectRatio="xMidYMid meet">

<g transform="translate(0.000000,885.000000) scale(0.100000,-0.100000)"
fill="#B91C1C" stroke="none">
<path d="M4375 8230 c-1397 -68 -2672 -913 -3281 -2175 -206 -429 -322 -837
-375 -1325 -17 -150 -17 -604 0 -745 46 -399 123 -715 258 -1055 459 -1158
1433 -2016 2641 -2326 329 -84 600 -117 957 -117 508 0 922 76 1390 253 507
193 988 508 1367 896 171 175 223 236 344 398 347 462 594 1016 704 1577 65
333 87 771 55 1094 -40 414 -136 801 -284 1150 -64 150 -80 177 -131 214 -143
103 -342 24 -379 -150 -14 -63 -5 -105 52 -240 125 -295 194 -547 244 -889 14
-99 18 -189 18 -435 0 -273 -3 -328 -23 -460 -58 -378 -152 -687 -306 -1010
-286 -596 -727 -1081 -1301 -1430 -390 -237 -830 -393 -1304 -461 -168 -24
-611 -30 -800 -10 -764 81 -1481 421 -2022 958 -291 289 -485 558 -659 913
-176 358 -269 663 -325 1070 -22 156 -30 539 -16 705 26 302 92 609 187 873
65 179 225 509 317 654 453 710 1137 1228 1922 1451 289 82 485 115 795 132
107 6 212 15 233 21 47 12 112 69 138 121 60 117 12 267 -103 321 -67 32 -115
36 -313 27z"/>
<path d="M6149 8179 c-220 -33 -391 -178 -471 -399 l-23 -65 -3 -1437 c-1
-791 -5 -1438 -8 -1438 -4 0 -32 22 -63 49 -459 397 -1163 476 -1714 192 -298
-154 -538 -396 -681 -686 -68 -138 -100 -229 -134 -375 -24 -105 -26 -133 -26
-325 0 -178 3 -225 22 -310 138 -632 598 -1090 1232 -1226 89 -20 135 -23 300
-23 165 0 211 4 300 23 317 69 577 207 790 421 204 203 330 413 410 681 62
210 60 121 60 2333 0 1444 3 2022 11 2045 22 62 60 65 204 17 133 -45 250
-104 416 -211 164 -105 336 -191 492 -244 205 -70 478 -118 627 -109 70 4 86
9 123 35 23 17 56 52 72 78 27 43 30 57 30 125 0 68 -3 82 -30 126 -45 71
-100 105 -193 116 -412 51 -583 110 -897 310 -184 117 -274 163 -435 221 -205
74 -304 93 -411 76z m-1324 -3437 c280 -76 497 -228 642 -449 113 -171 170
-345 179 -548 25 -510 -306 -958 -805 -1093 -86 -23 -114 -26 -266 -26 -153 0
-180 3 -270 27 -394 106 -696 419 -781 812 -51 236 -17 502 94 722 37 72 130
204 185 261 137 143 362 263 577 308 94 19 352 12 445 -14z"/>
<path d="M11495 5901 c-66 -12 -112 -37 -159 -85 -62 -62 -78 -103 -78 -206 0
-147 59 -231 195 -281 59 -22 199 -26 244 -8 76 32 93 42 131 78 51 50 67 80
82 157 24 124 -34 249 -146 310 -51 29 -73 34 -144 38 -47 3 -103 1 -125 -3z"/>
<path d="M27900 5901 c-95 -21 -173 -81 -210 -159 -28 -58 -31 -195 -6 -253
49 -115 161 -179 314 -179 69 0 92 5 145 29 71 32 124 79 153 137 15 30 19 60
19 134 0 108 -14 147 -73 206 -59 59 -119 84 -219 89 -49 2 -104 0 -123 -4z"/>
<path d="M25492 5798 c-9 -9 -12 -309 -12 -1332 0 -727 4 -1327 8 -1334 7 -9
72 -12 293 -10 l284 3 5 645 c3 355 6 646 8 646 1 1 35 27 75 57 104 80 154
100 252 100 92 0 131 -15 168 -65 60 -82 67 -167 67 -838 l0 -550 288 2 287 3
3 640 c4 686 0 764 -45 907 -65 210 -171 325 -347 377 -68 20 -93 22 -214 19
-117 -3 -148 -8 -210 -30 -84 -30 -183 -87 -279 -159 -42 -33 -69 -47 -75 -41
-6 6 -8 32 -5 59 19 170 27 384 25 628 l-3 280 -280 3 c-210 2 -284 -1 -293
-10z"/>
<path d="M9365 5623 c-47 -12 -45 46 -45 -1252 0 -941 3 -1230 12 -1239 9 -9
197 -12 785 -12 l773 0 0 245 0 245 -479 0 c-427 0 -480 2 -485 16 -3 9 -6
458 -6 999 0 776 -3 986 -12 992 -14 9 -511 14 -543 6z"/>
<path d="M19422 5620 l-22 -9 2 -238 3 -238 329 -3 c223 -1 334 -6 343 -13 11
-9 13 -188 13 -1005 l0 -994 288 2 287 3 3 989 c1 711 5 993 13 1003 9 10 76
13 334 13 262 0 325 3 334 14 8 9 11 82 9 242 l-3 228 -25 7 c-38 11 -1881 9
-1908 -1z"/>
<path d="M23202 5623 l-22 -4 2 -242 3 -242 335 -5 335 -5 5 -1000 5 -1000
290 0 290 0 5 1000 5 1000 335 5 335 5 3 238 2 237 -25 10 c-26 10 -1853 12
-1903 3z"/>
<path d="M14200 5605 c-7 -9 -21 -114 -51 -380 -22 -191 -21 -188 -54 -196
-16 -5 -82 -12 -145 -16 l-115 -8 0 -215 0 -215 125 -5 125 -5 6 -445 c4 -245
10 -461 13 -480 22 -117 37 -163 83 -256 83 -172 221 -268 428 -300 113 -17
195 -17 315 1 170 25 268 60 256 90 -3 8 -13 49 -22 92 -9 43 -20 94 -24 113
-4 19 -13 60 -19 90 -15 72 -25 81 -81 70 -198 -39 -321 31 -350 198 -7 45
-10 194 -8 447 l3 380 220 5 220 5 3 223 c1 122 1 223 0 224 -2 1 -102 4 -223
8 l-220 5 -3 283 c-2 222 -5 284 -15 288 -27 10 -459 9 -467 -1z"/>
<path d="M12803 5045 c-111 -29 -163 -51 -240 -103 -117 -80 -191 -179 -228
-305 -25 -85 -17 -281 13 -358 52 -131 240 -285 447 -364 237 -92 299 -121
343 -162 l44 -42 -4 -60 c-3 -50 -9 -66 -33 -91 -40 -42 -86 -54 -200 -54
-153 1 -275 40 -418 131 -38 24 -73 41 -78 37 -21 -13 -229 -299 -229 -315 0
-21 112 -107 200 -153 65 -34 184 -80 250 -97 70 -18 225 -39 289 -39 66 1
226 22 291 38 251 66 431 252 476 492 14 73 15 97 4 170 -22 149 -77 245 -192
333 -102 78 -179 117 -359 180 -251 89 -307 126 -316 209 -9 95 70 152 212
151 105 0 199 -24 313 -81 91 -45 93 -45 111 -26 38 39 221 286 221 298 0 11
-129 102 -185 129 -54 26 -208 78 -278 93 -43 9 -124 14 -215 14 -121 -1 -163
-5 -239 -25z"/>
<path d="M16025 5046 c-297 -81 -536 -305 -633 -591 -85 -248 -83 -540 5 -785
118 -332 406 -549 782 -590 231 -26 524 36 712 149 89 54 90 59 50 133 -19 35
-46 86 -61 113 -15 28 -40 74 -55 103 -31 59 -28 58 -120 17 -118 -53 -211
-75 -325 -75 -228 0 -389 105 -460 301 -15 39 -17 56 -9 66 9 10 117 13 560
13 l548 0 13 23 c18 32 24 333 8 422 -46 268 -149 458 -316 583 -70 53 -173
98 -282 126 -98 25 -314 21 -417 -8z m384 -451 c83 -45 147 -167 139 -263 l-3
-37 -320 0 -320 0 -3 31 c-4 43 48 148 101 202 75 77 145 103 267 99 72 -3 93
-7 139 -32z"/>
<path d="M18430 5059 c-130 -36 -236 -95 -370 -204 -37 -30 -72 -55 -79 -55
-16 0 -28 33 -42 123 -7 43 -18 85 -26 93 -19 19 -442 21 -461 2 -9 -9 -12
-232 -12 -942 0 -512 4 -937 8 -944 7 -9 72 -12 293 -10 l284 3 5 643 c4 566
7 645 20 655 9 7 44 34 78 60 91 71 139 89 236 89 91 1 128 -13 170 -62 58
-70 59 -77 65 -760 l6 -625 279 -3 c197 -2 283 1 292 9 21 18 20 1180 -1 1346
-9 65 -19 129 -24 143 -5 14 -14 45 -21 70 -36 125 -131 256 -223 309 -95 53
-174 71 -316 70 -69 0 -142 -5 -161 -10z"/>
<path d="M22055 5059 c-390 -90 -656 -361 -734 -747 -17 -82 -14 -403 4 -490
58 -275 244 -526 480 -644 178 -90 378 -125 557 -97 214 33 400 129 539 277
79 83 119 139 164 230 138 280 138 697 0 974 -124 249 -330 413 -613 486 -67
18 -109 22 -220 21 -75 -1 -155 -5 -177 -10z m333 -496 c85 -52 140 -159 167
-327 19 -118 19 -204 1 -321 -18 -111 -39 -175 -82 -242 -40 -62 -92 -98 -176
-119 -56 -15 -67 -15 -127 0 -110 27 -170 83 -220 206 -68 168 -65 491 6 646
67 148 144 197 296 190 75 -3 94 -8 135 -33z"/>
<path d="M29250 5056 c-129 -29 -215 -66 -299 -128 -102 -77 -173 -176 -207
-288 -25 -82 -22 -267 4 -338 44 -114 101 -180 237 -272 92 -62 124 -78 305
-150 271 -108 295 -126 295 -220 0 -70 -21 -105 -81 -135 -32 -16 -59 -19
-144 -19 -58 1 -127 6 -154 13 -85 21 -202 71 -272 116 -54 36 -70 42 -82 33
-32 -27 -222 -291 -222 -309 0 -23 104 -103 200 -153 65 -34 184 -80 250 -97
68 -18 224 -39 284 -39 64 1 237 23 296 38 208 55 380 204 451 392 26 68 36
229 20 315 -39 209 -200 348 -536 465 -249 87 -325 138 -325 219 0 140 191
187 431 106 38 -12 91 -37 119 -54 28 -17 56 -31 64 -31 13 0 74 74 193 235
29 38 53 73 53 77 0 11 -60 57 -130 99 -77 45 -230 103 -333 125 -84 17 -338
17 -417 0z"/>
<path d="M11302 5018 c-9 -9 -12 -232 -12 -942 0 -512 4 -937 8 -944 7 -9 72
-12 293 -10 l284 3 3 939 c1 685 -1 942 -9 952 -16 19 -549 20 -567 2z"/>
<path d="M27711 5017 c-8 -11 -10 -261 -9 -953 l3 -939 288 -3 287 -2 -2 952
-3 953 -276 3 c-225 2 -278 0 -288 -11z"/>
</g>
</svg>
