<svg xmlns="http://www.w3.org/2000/svg" version="1.1" xmlns:xlink="http://www.w3.org/1999/xlink" xmlns:svgjs="http://svgjs.dev/svgjs" viewBox="0 0 800 800" opacity="0.25"><defs><linearGradient gradientTransform="rotate(270)" x1="50%" y1="0%" x2="50%" y2="100%" id="sssquiggly-grad"><stop stop-color="hsl(265, 55%, 30%)" stop-opacity="1" offset="0%"></stop><stop stop-color="hsl(265, 55%, 60%)" stop-opacity="1" offset="100%"></stop></linearGradient></defs><g stroke-width="0.5" stroke="url(#sssquiggly-grad)" fill="none" stroke-linecap="round" transform="matrix(1,0,0,1,-5,-3057.539840698242)"><path d="M10,10C24.583333333333332,11.458333333333334,48.75,25.333333333333336,80,17C111.25,8.666666666666666,126.66666666666666,-33.333333333333336,160,-30C193.33333333333334,-26.666666666666668,206.66666666666666,31.958333333333332,240,33C273.3333333333333,34.041666666666664,286.6666666666667,-27.5,320,-25C353.3333333333333,-22.5,366.6666666666667,40.625,400,45C433.3333333333333,49.375,446.6666666666667,-1.291666666666667,480,-4C513.3333333333334,-6.708333333333333,526.6666666666666,35.958333333333336,560,32C593.3333333333334,28.041666666666668,606.6666666666666,-24.875,640,-23C673.3333333333334,-21.125,686.6666666666666,36.208333333333336,720,41C753.3333333333334,45.791666666666664,783.3333333333334,8.541666666666666,800,0"></path><path d="M10,10C24.583333333333332,11.458333333333334,48.75,25.333333333333336,80,17C111.25,8.666666666666666,126.66666666666666,-33.333333333333336,160,-30C193.33333333333334,-26.666666666666668,206.66666666666666,31.958333333333332,240,33C273.3333333333333,34.041666666666664,286.6666666666667,-27.5,320,-25C353.3333333333333,-22.5,366.6666666666667,40.625,400,45C433.3333333333333,49.375,446.6666666666667,-1.291666666666667,480,-4C513.3333333333334,-6.708333333333333,526.6666666666666,35.958333333333336,560,32C593.3333333333334,28.041666666666668,606.6666666666666,-24.875,640,-23C673.3333333333334,-21.125,686.6666666666666,36.208333333333336,720,41C753.3333333333334,45.791666666666664,783.3333333333334,8.541666666666666,800,0" transform="matrix(1,0,0,1,0,6900)"></path><path d="M10,10C24.583333333333332,11.458333333333334,48.75,25.333333333333336,80,17C111.25,8.666666666666666,126.66666666666666,-33.333333333333336,160,-30C193.33333333333334,-26.666666666666668,206.66666666666666,31.958333333333332,240,33C273.3333333333333,34.041666666666664,286.6666666666667,-27.5,320,-25C353.3333333333333,-22.5,366.6666666666667,40.625,400,45C433.3333333333333,49.375,446.6666666666667,-1.291666666666667,480,-4C513.3333333333334,-6.708333333333333,526.6666666666666,35.958333333333336,560,32C593.3333333333334,28.041666666666668,606.6666666666666,-24.875,640,-23C673.3333333333334,-21.125,686.6666666666666,36.208333333333336,720,41C753.3333333333334,45.791666666666664,783.3333333333334,8.541666666666666,800,0" transform="matrix(1,0,0,1,0,6750)"></path><path d="M10,10C24.583333333333332,11.458333333333334,48.75,25.333333333333336,80,17C111.25,8.666666666666666,126.66666666666666,-33.333333333333336,160,-30C193.33333333333334,-26.666666666666668,206.66666666666666,31.958333333333332,240,33C273.3333333333333,34.041666666666664,286.6666666666667,-27.5,320,-25C353.3333333333333,-22.5,366.6666666666667,40.625,400,45C433.3333333333333,49.375,446.6666666666667,-1.291666666666667,480,-4C513.3333333333334,-6.708333333333333,526.6666666666666,35.958333333333336,560,32C593.3333333333334,28.041666666666668,606.6666666666666,-24.875,640,-23C673.3333333333334,-21.125,686.6666666666666,36.208333333333336,720,41C753.3333333333334,45.791666666666664,783.3333333333334,8.541666666666666,800,0" transform="matrix(1,0,0,1,0,6600)"></path><path d="M10,10C24.583333333333332,11.458333333333334,48.75,25.333333333333336,80,17C111.25,8.666666666666666,126.66666666666666,-33.333333333333336,160,-30C193.33333333333334,-26.666666666666668,206.66666666666666,31.958333333333332,240,33C273.3333333333333,34.041666666666664,286.6666666666667,-27.5,320,-25C353.3333333333333,-22.5,366.6666666666667,40.625,400,45C433.3333333333333,49.375,446.6666666666667,-1.291666666666667,480,-4C513.3333333333334,-6.708333333333333,526.6666666666666,35.958333333333336,560,32C593.3333333333334,28.041666666666668,606.6666666666666,-24.875,640,-23C673.3333333333334,-21.125,686.6666666666666,36.208333333333336,720,41C753.3333333333334,45.791666666666664,783.3333333333334,8.541666666666666,800,0" transform="matrix(1,0,0,1,0,6450)"></path><path d="M10,10C24.583333333333332,11.458333333333334,48.75,25.333333333333336,80,17C111.25,8.666666666666666,126.66666666666666,-33.333333333333336,160,-30C193.33333333333334,-26.666666666666668,206.66666666666666,31.958333333333332,240,33C273.3333333333333,34.041666666666664,286.6666666666667,-27.5,320,-25C353.3333333333333,-22.5,366.6666666666667,40.625,400,45C433.3333333333333,49.375,446.6666666666667,-1.291666666666667,480,-4C513.3333333333334,-6.708333333333333,526.6666666666666,35.958333333333336,560,32C593.3333333333334,28.041666666666668,606.6666666666666,-24.875,640,-23C673.3333333333334,-21.125,686.6666666666666,36.208333333333336,720,41C753.3333333333334,45.791666666666664,783.3333333333334,8.541666666666666,800,0" transform="matrix(1,0,0,1,0,6300)"></path><path d="M10,10C24.583333333333332,11.458333333333334,48.75,25.333333333333336,80,17C111.25,8.666666666666666,126.66666666666666,-33.333333333333336,160,-30C193.33333333333334,-26.666666666666668,206.66666666666666,31.958333333333332,240,33C273.3333333333333,34.041666666666664,286.6666666666667,-27.5,320,-25C353.3333333333333,-22.5,366.6666666666667,40.625,400,45C433.3333333333333,49.375,446.6666666666667,-1.291666666666667,480,-4C513.3333333333334,-6.708333333333333,526.6666666666666,35.958333333333336,560,32C593.3333333333334,28.041666666666668,606.6666666666666,-24.875,640,-23C673.3333333333334,-21.125,686.6666666666666,36.208333333333336,720,41C753.3333333333334,45.791666666666664,783.3333333333334,8.541666666666666,800,0" transform="matrix(1,0,0,1,0,6150)"></path><path d="M10,10C24.583333333333332,11.458333333333334,48.75,25.333333333333336,80,17C111.25,8.666666666666666,126.66666666666666,-33.333333333333336,160,-30C193.33333333333334,-26.666666666666668,206.66666666666666,31.958333333333332,240,33C273.3333333333333,34.041666666666664,286.6666666666667,-27.5,320,-25C353.3333333333333,-22.5,366.6666666666667,40.625,400,45C433.3333333333333,49.375,446.6666666666667,-1.291666666666667,480,-4C513.3333333333334,-6.708333333333333,526.6666666666666,35.958333333333336,560,32C593.3333333333334,28.041666666666668,606.6666666666666,-24.875,640,-23C673.3333333333334,-21.125,686.6666666666666,36.208333333333336,720,41C753.3333333333334,45.791666666666664,783.3333333333334,8.541666666666666,800,0" transform="matrix(1,0,0,1,0,6000)"></path><path d="M10,10C24.583333333333332,11.458333333333334,48.75,25.333333333333336,80,17C111.25,8.666666666666666,126.66666666666666,-33.333333333333336,160,-30C193.33333333333334,-26.666666666666668,206.66666666666666,31.958333333333332,240,33C273.3333333333333,34.041666666666664,286.6666666666667,-27.5,320,-25C353.3333333333333,-22.5,366.6666666666667,40.625,400,45C433.3333333333333,49.375,446.6666666666667,-1.291666666666667,480,-4C513.3333333333334,-6.708333333333333,526.6666666666666,35.958333333333336,560,32C593.3333333333334,28.041666666666668,606.6666666666666,-24.875,640,-23C673.3333333333334,-21.125,686.6666666666666,36.208333333333336,720,41C753.3333333333334,45.791666666666664,783.3333333333334,8.541666666666666,800,0" transform="matrix(1,0,0,1,0,5850)"></path><path d="M10,10C24.583333333333332,11.458333333333334,48.75,25.333333333333336,80,17C111.25,8.666666666666666,126.66666666666666,-33.333333333333336,160,-30C193.33333333333334,-26.666666666666668,206.66666666666666,31.958333333333332,240,33C273.3333333333333,34.041666666666664,286.6666666666667,-27.5,320,-25C353.3333333333333,-22.5,366.6666666666667,40.625,400,45C433.3333333333333,49.375,446.6666666666667,-1.291666666666667,480,-4C513.3333333333334,-6.708333333333333,526.6666666666666,35.958333333333336,560,32C593.3333333333334,28.041666666666668,606.6666666666666,-24.875,640,-23C673.3333333333334,-21.125,686.6666666666666,36.208333333333336,720,41C753.3333333333334,45.791666666666664,783.3333333333334,8.541666666666666,800,0" transform="matrix(1,0,0,1,0,5700)"></path><path d="M10,10C24.583333333333332,11.458333333333334,48.75,25.333333333333336,80,17C111.25,8.666666666666666,126.66666666666666,-33.333333333333336,160,-30C193.33333333333334,-26.666666666666668,206.66666666666666,31.958333333333332,240,33C273.3333333333333,34.041666666666664,286.6666666666667,-27.5,320,-25C353.3333333333333,-22.5,366.6666666666667,40.625,400,45C433.3333333333333,49.375,446.6666666666667,-1.291666666666667,480,-4C513.3333333333334,-6.708333333333333,526.6666666666666,35.958333333333336,560,32C593.3333333333334,28.041666666666668,606.6666666666666,-24.875,640,-23C673.3333333333334,-21.125,686.6666666666666,36.208333333333336,720,41C753.3333333333334,45.791666666666664,783.3333333333334,8.541666666666666,800,0" transform="matrix(1,0,0,1,0,5550)"></path><path d="M10,10C24.583333333333332,11.458333333333334,48.75,25.333333333333336,80,17C111.25,8.666666666666666,126.66666666666666,-33.333333333333336,160,-30C193.33333333333334,-26.666666666666668,206.66666666666666,31.958333333333332,240,33C273.3333333333333,34.041666666666664,286.6666666666667,-27.5,320,-25C353.3333333333333,-22.5,366.6666666666667,40.625,400,45C433.3333333333333,49.375,446.6666666666667,-1.291666666666667,480,-4C513.3333333333334,-6.708333333333333,526.6666666666666,35.958333333333336,560,32C593.3333333333334,28.041666666666668,606.6666666666666,-24.875,640,-23C673.3333333333334,-21.125,686.6666666666666,36.208333333333336,720,41C753.3333333333334,45.791666666666664,783.3333333333334,8.541666666666666,800,0" transform="matrix(1,0,0,1,0,5400)"></path><path d="M10,10C24.583333333333332,11.458333333333334,48.75,25.333333333333336,80,17C111.25,8.666666666666666,126.66666666666666,-33.333333333333336,160,-30C193.33333333333334,-26.666666666666668,206.66666666666666,31.958333333333332,240,33C273.3333333333333,34.041666666666664,286.6666666666667,-27.5,320,-25C353.3333333333333,-22.5,366.6666666666667,40.625,400,45C433.3333333333333,49.375,446.6666666666667,-1.291666666666667,480,-4C513.3333333333334,-6.708333333333333,526.6666666666666,35.958333333333336,560,32C593.3333333333334,28.041666666666668,606.6666666666666,-24.875,640,-23C673.3333333333334,-21.125,686.6666666666666,36.208333333333336,720,41C753.3333333333334,45.791666666666664,783.3333333333334,8.541666666666666,800,0" transform="matrix(1,0,0,1,0,5250)"></path><path d="M10,10C24.583333333333332,11.458333333333334,48.75,25.333333333333336,80,17C111.25,8.666666666666666,126.66666666666666,-33.333333333333336,160,-30C193.33333333333334,-26.666666666666668,206.66666666666666,31.958333333333332,240,33C273.3333333333333,34.041666666666664,286.6666666666667,-27.5,320,-25C353.3333333333333,-22.5,366.6666666666667,40.625,400,45C433.3333333333333,49.375,446.6666666666667,-1.291666666666667,480,-4C513.3333333333334,-6.708333333333333,526.6666666666666,35.958333333333336,560,32C593.3333333333334,28.041666666666668,606.6666666666666,-24.875,640,-23C673.3333333333334,-21.125,686.6666666666666,36.208333333333336,720,41C753.3333333333334,45.791666666666664,783.3333333333334,8.541666666666666,800,0" transform="matrix(1,0,0,1,0,5100)"></path><path d="M10,10C24.583333333333332,11.458333333333334,48.75,25.333333333333336,80,17C111.25,8.666666666666666,126.66666666666666,-33.333333333333336,160,-30C193.33333333333334,-26.666666666666668,206.66666666666666,31.958333333333332,240,33C273.3333333333333,34.041666666666664,286.6666666666667,-27.5,320,-25C353.3333333333333,-22.5,366.6666666666667,40.625,400,45C433.3333333333333,49.375,446.6666666666667,-1.291666666666667,480,-4C513.3333333333334,-6.708333333333333,526.6666666666666,35.958333333333336,560,32C593.3333333333334,28.041666666666668,606.6666666666666,-24.875,640,-23C673.3333333333334,-21.125,686.6666666666666,36.208333333333336,720,41C753.3333333333334,45.791666666666664,783.3333333333334,8.541666666666666,800,0" transform="matrix(1,0,0,1,0,4950)"></path><path d="M10,10C24.583333333333332,11.458333333333334,48.75,25.333333333333336,80,17C111.25,8.666666666666666,126.66666666666666,-33.333333333333336,160,-30C193.33333333333334,-26.666666666666668,206.66666666666666,31.958333333333332,240,33C273.3333333333333,34.041666666666664,286.6666666666667,-27.5,320,-25C353.3333333333333,-22.5,366.6666666666667,40.625,400,45C433.3333333333333,49.375,446.6666666666667,-1.291666666666667,480,-4C513.3333333333334,-6.708333333333333,526.6666666666666,35.958333333333336,560,32C593.3333333333334,28.041666666666668,606.6666666666666,-24.875,640,-23C673.3333333333334,-21.125,686.6666666666666,36.208333333333336,720,41C753.3333333333334,45.791666666666664,783.3333333333334,8.541666666666666,800,0" transform="matrix(1,0,0,1,0,4800)"></path><path d="M10,10C24.583333333333332,11.458333333333334,48.75,25.333333333333336,80,17C111.25,8.666666666666666,126.66666666666666,-33.333333333333336,160,-30C193.33333333333334,-26.666666666666668,206.66666666666666,31.958333333333332,240,33C273.3333333333333,34.041666666666664,286.6666666666667,-27.5,320,-25C353.3333333333333,-22.5,366.6666666666667,40.625,400,45C433.3333333333333,49.375,446.6666666666667,-1.291666666666667,480,-4C513.3333333333334,-6.708333333333333,526.6666666666666,35.958333333333336,560,32C593.3333333333334,28.041666666666668,606.6666666666666,-24.875,640,-23C673.3333333333334,-21.125,686.6666666666666,36.208333333333336,720,41C753.3333333333334,45.791666666666664,783.3333333333334,8.541666666666666,800,0" transform="matrix(1,0,0,1,0,4650)"></path><path d="M10,10C24.583333333333332,11.458333333333334,48.75,25.333333333333336,80,17C111.25,8.666666666666666,126.66666666666666,-33.333333333333336,160,-30C193.33333333333334,-26.666666666666668,206.66666666666666,31.958333333333332,240,33C273.3333333333333,34.041666666666664,286.6666666666667,-27.5,320,-25C353.3333333333333,-22.5,366.6666666666667,40.625,400,45C433.3333333333333,49.375,446.6666666666667,-1.291666666666667,480,-4C513.3333333333334,-6.708333333333333,526.6666666666666,35.958333333333336,560,32C593.3333333333334,28.041666666666668,606.6666666666666,-24.875,640,-23C673.3333333333334,-21.125,686.6666666666666,36.208333333333336,720,41C753.3333333333334,45.791666666666664,783.3333333333334,8.541666666666666,800,0" transform="matrix(1,0,0,1,0,4500)"></path><path d="M10,10C24.583333333333332,11.458333333333334,48.75,25.333333333333336,80,17C111.25,8.666666666666666,126.66666666666666,-33.333333333333336,160,-30C193.33333333333334,-26.666666666666668,206.66666666666666,31.958333333333332,240,33C273.3333333333333,34.041666666666664,286.6666666666667,-27.5,320,-25C353.3333333333333,-22.5,366.6666666666667,40.625,400,45C433.3333333333333,49.375,446.6666666666667,-1.291666666666667,480,-4C513.3333333333334,-6.708333333333333,526.6666666666666,35.958333333333336,560,32C593.3333333333334,28.041666666666668,606.6666666666666,-24.875,640,-23C673.3333333333334,-21.125,686.6666666666666,36.208333333333336,720,41C753.3333333333334,45.791666666666664,783.3333333333334,8.541666666666666,800,0" transform="matrix(1,0,0,1,0,4350)"></path><path d="M10,10C24.583333333333332,11.458333333333334,48.75,25.333333333333336,80,17C111.25,8.666666666666666,126.66666666666666,-33.333333333333336,160,-30C193.33333333333334,-26.666666666666668,206.66666666666666,31.958333333333332,240,33C273.3333333333333,34.041666666666664,286.6666666666667,-27.5,320,-25C353.3333333333333,-22.5,366.6666666666667,40.625,400,45C433.3333333333333,49.375,446.6666666666667,-1.291666666666667,480,-4C513.3333333333334,-6.708333333333333,526.6666666666666,35.958333333333336,560,32C593.3333333333334,28.041666666666668,606.6666666666666,-24.875,640,-23C673.3333333333334,-21.125,686.6666666666666,36.208333333333336,720,41C753.3333333333334,45.791666666666664,783.3333333333334,8.541666666666666,800,0" transform="matrix(1,0,0,1,0,4200)"></path><path d="M10,10C24.583333333333332,11.458333333333334,48.75,25.333333333333336,80,17C111.25,8.666666666666666,126.66666666666666,-33.333333333333336,160,-30C193.33333333333334,-26.666666666666668,206.66666666666666,31.958333333333332,240,33C273.3333333333333,34.041666666666664,286.6666666666667,-27.5,320,-25C353.3333333333333,-22.5,366.6666666666667,40.625,400,45C433.3333333333333,49.375,446.6666666666667,-1.291666666666667,480,-4C513.3333333333334,-6.708333333333333,526.6666666666666,35.958333333333336,560,32C593.3333333333334,28.041666666666668,606.6666666666666,-24.875,640,-23C673.3333333333334,-21.125,686.6666666666666,36.208333333333336,720,41C753.3333333333334,45.791666666666664,783.3333333333334,8.541666666666666,800,0" transform="matrix(1,0,0,1,0,4050)"></path><path d="M10,10C24.583333333333332,11.458333333333334,48.75,25.333333333333336,80,17C111.25,8.666666666666666,126.66666666666666,-33.333333333333336,160,-30C193.33333333333334,-26.666666666666668,206.66666666666666,31.958333333333332,240,33C273.3333333333333,34.041666666666664,286.6666666666667,-27.5,320,-25C353.3333333333333,-22.5,366.6666666666667,40.625,400,45C433.3333333333333,49.375,446.6666666666667,-1.291666666666667,480,-4C513.3333333333334,-6.708333333333333,526.6666666666666,35.958333333333336,560,32C593.3333333333334,28.041666666666668,606.6666666666666,-24.875,640,-23C673.3333333333334,-21.125,686.6666666666666,36.208333333333336,720,41C753.3333333333334,45.791666666666664,783.3333333333334,8.541666666666666,800,0" transform="matrix(1,0,0,1,0,3900)"></path><path d="M10,10C24.583333333333332,11.458333333333334,48.75,25.333333333333336,80,17C111.25,8.666666666666666,126.66666666666666,-33.333333333333336,160,-30C193.33333333333334,-26.666666666666668,206.66666666666666,31.958333333333332,240,33C273.3333333333333,34.041666666666664,286.6666666666667,-27.5,320,-25C353.3333333333333,-22.5,366.6666666666667,40.625,400,45C433.3333333333333,49.375,446.6666666666667,-1.291666666666667,480,-4C513.3333333333334,-6.708333333333333,526.6666666666666,35.958333333333336,560,32C593.3333333333334,28.041666666666668,606.6666666666666,-24.875,640,-23C673.3333333333334,-21.125,686.6666666666666,36.208333333333336,720,41C753.3333333333334,45.791666666666664,783.3333333333334,8.541666666666666,800,0" transform="matrix(1,0,0,1,0,3750)"></path><path d="M10,10C24.583333333333332,11.458333333333334,48.75,25.333333333333336,80,17C111.25,8.666666666666666,126.66666666666666,-33.333333333333336,160,-30C193.33333333333334,-26.666666666666668,206.66666666666666,31.958333333333332,240,33C273.3333333333333,34.041666666666664,286.6666666666667,-27.5,320,-25C353.3333333333333,-22.5,366.6666666666667,40.625,400,45C433.3333333333333,49.375,446.6666666666667,-1.291666666666667,480,-4C513.3333333333334,-6.708333333333333,526.6666666666666,35.958333333333336,560,32C593.3333333333334,28.041666666666668,606.6666666666666,-24.875,640,-23C673.3333333333334,-21.125,686.6666666666666,36.208333333333336,720,41C753.3333333333334,45.791666666666664,783.3333333333334,8.541666666666666,800,0" transform="matrix(1,0,0,1,0,3600)"></path><path d="M10,10C24.583333333333332,11.458333333333334,48.75,25.333333333333336,80,17C111.25,8.666666666666666,126.66666666666666,-33.333333333333336,160,-30C193.33333333333334,-26.666666666666668,206.66666666666666,31.958333333333332,240,33C273.3333333333333,34.041666666666664,286.6666666666667,-27.5,320,-25C353.3333333333333,-22.5,366.6666666666667,40.625,400,45C433.3333333333333,49.375,446.6666666666667,-1.291666666666667,480,-4C513.3333333333334,-6.708333333333333,526.6666666666666,35.958333333333336,560,32C593.3333333333334,28.041666666666668,606.6666666666666,-24.875,640,-23C673.3333333333334,-21.125,686.6666666666666,36.208333333333336,720,41C753.3333333333334,45.791666666666664,783.3333333333334,8.541666666666666,800,0" transform="matrix(1,0,0,1,0,3450)"></path><path d="M10,10C24.583333333333332,11.458333333333334,48.75,25.333333333333336,80,17C111.25,8.666666666666666,126.66666666666666,-33.333333333333336,160,-30C193.33333333333334,-26.666666666666668,206.66666666666666,31.958333333333332,240,33C273.3333333333333,34.041666666666664,286.6666666666667,-27.5,320,-25C353.3333333333333,-22.5,366.6666666666667,40.625,400,45C433.3333333333333,49.375,446.6666666666667,-1.291666666666667,480,-4C513.3333333333334,-6.708333333333333,526.6666666666666,35.958333333333336,560,32C593.3333333333334,28.041666666666668,606.6666666666666,-24.875,640,-23C673.3333333333334,-21.125,686.6666666666666,36.208333333333336,720,41C753.3333333333334,45.791666666666664,783.3333333333334,8.541666666666666,800,0" transform="matrix(1,0,0,1,0,3300)"></path><path d="M10,10C24.583333333333332,11.458333333333334,48.75,25.333333333333336,80,17C111.25,8.666666666666666,126.66666666666666,-33.333333333333336,160,-30C193.33333333333334,-26.666666666666668,206.66666666666666,31.958333333333332,240,33C273.3333333333333,34.041666666666664,286.6666666666667,-27.5,320,-25C353.3333333333333,-22.5,366.6666666666667,40.625,400,45C433.3333333333333,49.375,446.6666666666667,-1.291666666666667,480,-4C513.3333333333334,-6.708333333333333,526.6666666666666,35.958333333333336,560,32C593.3333333333334,28.041666666666668,606.6666666666666,-24.875,640,-23C673.3333333333334,-21.125,686.6666666666666,36.208333333333336,720,41C753.3333333333334,45.791666666666664,783.3333333333334,8.541666666666666,800,0" transform="matrix(1,0,0,1,0,3150)"></path><path d="M10,10C24.583333333333332,11.458333333333334,48.75,25.333333333333336,80,17C111.25,8.666666666666666,126.66666666666666,-33.333333333333336,160,-30C193.33333333333334,-26.666666666666668,206.66666666666666,31.958333333333332,240,33C273.3333333333333,34.041666666666664,286.6666666666667,-27.5,320,-25C353.3333333333333,-22.5,366.6666666666667,40.625,400,45C433.3333333333333,49.375,446.6666666666667,-1.291666666666667,480,-4C513.3333333333334,-6.708333333333333,526.6666666666666,35.958333333333336,560,32C593.3333333333334,28.041666666666668,606.6666666666666,-24.875,640,-23C673.3333333333334,-21.125,686.6666666666666,36.208333333333336,720,41C753.3333333333334,45.791666666666664,783.3333333333334,8.541666666666666,800,0" transform="matrix(1,0,0,1,0,3000)"></path><path d="M10,10C24.583333333333332,11.458333333333334,48.75,25.333333333333336,80,17C111.25,8.666666666666666,126.66666666666666,-33.333333333333336,160,-30C193.33333333333334,-26.666666666666668,206.66666666666666,31.958333333333332,240,33C273.3333333333333,34.041666666666664,286.6666666666667,-27.5,320,-25C353.3333333333333,-22.5,366.6666666666667,40.625,400,45C433.3333333333333,49.375,446.6666666666667,-1.291666666666667,480,-4C513.3333333333334,-6.708333333333333,526.6666666666666,35.958333333333336,560,32C593.3333333333334,28.041666666666668,606.6666666666666,-24.875,640,-23C673.3333333333334,-21.125,686.6666666666666,36.208333333333336,720,41C753.3333333333334,45.791666666666664,783.3333333333334,8.541666666666666,800,0" transform="matrix(1,0,0,1,0,2850)"></path><path d="M10,10C24.583333333333332,11.458333333333334,48.75,25.333333333333336,80,17C111.25,8.666666666666666,126.66666666666666,-33.333333333333336,160,-30C193.33333333333334,-26.666666666666668,206.66666666666666,31.958333333333332,240,33C273.3333333333333,34.041666666666664,286.6666666666667,-27.5,320,-25C353.3333333333333,-22.5,366.6666666666667,40.625,400,45C433.3333333333333,49.375,446.6666666666667,-1.291666666666667,480,-4C513.3333333333334,-6.708333333333333,526.6666666666666,35.958333333333336,560,32C593.3333333333334,28.041666666666668,606.6666666666666,-24.875,640,-23C673.3333333333334,-21.125,686.6666666666666,36.208333333333336,720,41C753.3333333333334,45.791666666666664,783.3333333333334,8.541666666666666,800,0" transform="matrix(1,0,0,1,0,2700)"></path><path d="M10,10C24.583333333333332,11.458333333333334,48.75,25.333333333333336,80,17C111.25,8.666666666666666,126.66666666666666,-33.333333333333336,160,-30C193.33333333333334,-26.666666666666668,206.66666666666666,31.958333333333332,240,33C273.3333333333333,34.041666666666664,286.6666666666667,-27.5,320,-25C353.3333333333333,-22.5,366.6666666666667,40.625,400,45C433.3333333333333,49.375,446.6666666666667,-1.291666666666667,480,-4C513.3333333333334,-6.708333333333333,526.6666666666666,35.958333333333336,560,32C593.3333333333334,28.041666666666668,606.6666666666666,-24.875,640,-23C673.3333333333334,-21.125,686.6666666666666,36.208333333333336,720,41C753.3333333333334,45.791666666666664,783.3333333333334,8.541666666666666,800,0" transform="matrix(1,0,0,1,0,2550)"></path><path d="M10,10C24.583333333333332,11.458333333333334,48.75,25.333333333333336,80,17C111.25,8.666666666666666,126.66666666666666,-33.333333333333336,160,-30C193.33333333333334,-26.666666666666668,206.66666666666666,31.958333333333332,240,33C273.3333333333333,34.041666666666664,286.6666666666667,-27.5,320,-25C353.3333333333333,-22.5,366.6666666666667,40.625,400,45C433.3333333333333,49.375,446.6666666666667,-1.291666666666667,480,-4C513.3333333333334,-6.708333333333333,526.6666666666666,35.958333333333336,560,32C593.3333333333334,28.041666666666668,606.6666666666666,-24.875,640,-23C673.3333333333334,-21.125,686.6666666666666,36.208333333333336,720,41C753.3333333333334,45.791666666666664,783.3333333333334,8.541666666666666,800,0" transform="matrix(1,0,0,1,0,2400)"></path><path d="M10,10C24.583333333333332,11.458333333333334,48.75,25.333333333333336,80,17C111.25,8.666666666666666,126.66666666666666,-33.333333333333336,160,-30C193.33333333333334,-26.666666666666668,206.66666666666666,31.958333333333332,240,33C273.3333333333333,34.041666666666664,286.6666666666667,-27.5,320,-25C353.3333333333333,-22.5,366.6666666666667,40.625,400,45C433.3333333333333,49.375,446.6666666666667,-1.291666666666667,480,-4C513.3333333333334,-6.708333333333333,526.6666666666666,35.958333333333336,560,32C593.3333333333334,28.041666666666668,606.6666666666666,-24.875,640,-23C673.3333333333334,-21.125,686.6666666666666,36.208333333333336,720,41C753.3333333333334,45.791666666666664,783.3333333333334,8.541666666666666,800,0" transform="matrix(1,0,0,1,0,2250)"></path><path d="M10,10C24.583333333333332,11.458333333333334,48.75,25.333333333333336,80,17C111.25,8.666666666666666,126.66666666666666,-33.333333333333336,160,-30C193.33333333333334,-26.666666666666668,206.66666666666666,31.958333333333332,240,33C273.3333333333333,34.041666666666664,286.6666666666667,-27.5,320,-25C353.3333333333333,-22.5,366.6666666666667,40.625,400,45C433.3333333333333,49.375,446.6666666666667,-1.291666666666667,480,-4C513.3333333333334,-6.708333333333333,526.6666666666666,35.958333333333336,560,32C593.3333333333334,28.041666666666668,606.6666666666666,-24.875,640,-23C673.3333333333334,-21.125,686.6666666666666,36.208333333333336,720,41C753.3333333333334,45.791666666666664,783.3333333333334,8.541666666666666,800,0" transform="matrix(1,0,0,1,0,2100)"></path><path d="M10,10C24.583333333333332,11.458333333333334,48.75,25.333333333333336,80,17C111.25,8.666666666666666,126.66666666666666,-33.333333333333336,160,-30C193.33333333333334,-26.666666666666668,206.66666666666666,31.958333333333332,240,33C273.3333333333333,34.041666666666664,286.6666666666667,-27.5,320,-25C353.3333333333333,-22.5,366.6666666666667,40.625,400,45C433.3333333333333,49.375,446.6666666666667,-1.291666666666667,480,-4C513.3333333333334,-6.708333333333333,526.6666666666666,35.958333333333336,560,32C593.3333333333334,28.041666666666668,606.6666666666666,-24.875,640,-23C673.3333333333334,-21.125,686.6666666666666,36.208333333333336,720,41C753.3333333333334,45.791666666666664,783.3333333333334,8.541666666666666,800,0" transform="matrix(1,0,0,1,0,1950)"></path><path d="M10,10C24.583333333333332,11.458333333333334,48.75,25.333333333333336,80,17C111.25,8.666666666666666,126.66666666666666,-33.333333333333336,160,-30C193.33333333333334,-26.666666666666668,206.66666666666666,31.958333333333332,240,33C273.3333333333333,34.041666666666664,286.6666666666667,-27.5,320,-25C353.3333333333333,-22.5,366.6666666666667,40.625,400,45C433.3333333333333,49.375,446.6666666666667,-1.291666666666667,480,-4C513.3333333333334,-6.708333333333333,526.6666666666666,35.958333333333336,560,32C593.3333333333334,28.041666666666668,606.6666666666666,-24.875,640,-23C673.3333333333334,-21.125,686.6666666666666,36.208333333333336,720,41C753.3333333333334,45.791666666666664,783.3333333333334,8.541666666666666,800,0" transform="matrix(1,0,0,1,0,1800)"></path><path d="M10,10C24.583333333333332,11.458333333333334,48.75,25.333333333333336,80,17C111.25,8.666666666666666,126.66666666666666,-33.333333333333336,160,-30C193.33333333333334,-26.666666666666668,206.66666666666666,31.958333333333332,240,33C273.3333333333333,34.041666666666664,286.6666666666667,-27.5,320,-25C353.3333333333333,-22.5,366.6666666666667,40.625,400,45C433.3333333333333,49.375,446.6666666666667,-1.291666666666667,480,-4C513.3333333333334,-6.708333333333333,526.6666666666666,35.958333333333336,560,32C593.3333333333334,28.041666666666668,606.6666666666666,-24.875,640,-23C673.3333333333334,-21.125,686.6666666666666,36.208333333333336,720,41C753.3333333333334,45.791666666666664,783.3333333333334,8.541666666666666,800,0" transform="matrix(1,0,0,1,0,1650)"></path><path d="M10,10C24.583333333333332,11.458333333333334,48.75,25.333333333333336,80,17C111.25,8.666666666666666,126.66666666666666,-33.333333333333336,160,-30C193.33333333333334,-26.666666666666668,206.66666666666666,31.958333333333332,240,33C273.3333333333333,34.041666666666664,286.6666666666667,-27.5,320,-25C353.3333333333333,-22.5,366.6666666666667,40.625,400,45C433.3333333333333,49.375,446.6666666666667,-1.291666666666667,480,-4C513.3333333333334,-6.708333333333333,526.6666666666666,35.958333333333336,560,32C593.3333333333334,28.041666666666668,606.6666666666666,-24.875,640,-23C673.3333333333334,-21.125,686.6666666666666,36.208333333333336,720,41C753.3333333333334,45.791666666666664,783.3333333333334,8.541666666666666,800,0" transform="matrix(1,0,0,1,0,1500)"></path><path d="M10,10C24.583333333333332,11.458333333333334,48.75,25.333333333333336,80,17C111.25,8.666666666666666,126.66666666666666,-33.333333333333336,160,-30C193.33333333333334,-26.666666666666668,206.66666666666666,31.958333333333332,240,33C273.3333333333333,34.041666666666664,286.6666666666667,-27.5,320,-25C353.3333333333333,-22.5,366.6666666666667,40.625,400,45C433.3333333333333,49.375,446.6666666666667,-1.291666666666667,480,-4C513.3333333333334,-6.708333333333333,526.6666666666666,35.958333333333336,560,32C593.3333333333334,28.041666666666668,606.6666666666666,-24.875,640,-23C673.3333333333334,-21.125,686.6666666666666,36.208333333333336,720,41C753.3333333333334,45.791666666666664,783.3333333333334,8.541666666666666,800,0" transform="matrix(1,0,0,1,0,1350)"></path><path d="M10,10C24.583333333333332,11.458333333333334,48.75,25.333333333333336,80,17C111.25,8.666666666666666,126.66666666666666,-33.333333333333336,160,-30C193.33333333333334,-26.666666666666668,206.66666666666666,31.958333333333332,240,33C273.3333333333333,34.041666666666664,286.6666666666667,-27.5,320,-25C353.3333333333333,-22.5,366.6666666666667,40.625,400,45C433.3333333333333,49.375,446.6666666666667,-1.291666666666667,480,-4C513.3333333333334,-6.708333333333333,526.6666666666666,35.958333333333336,560,32C593.3333333333334,28.041666666666668,606.6666666666666,-24.875,640,-23C673.3333333333334,-21.125,686.6666666666666,36.208333333333336,720,41C753.3333333333334,45.791666666666664,783.3333333333334,8.541666666666666,800,0" transform="matrix(1,0,0,1,0,1200)"></path><path d="M10,10C24.583333333333332,11.458333333333334,48.75,25.333333333333336,80,17C111.25,8.666666666666666,126.66666666666666,-33.333333333333336,160,-30C193.33333333333334,-26.666666666666668,206.66666666666666,31.958333333333332,240,33C273.3333333333333,34.041666666666664,286.6666666666667,-27.5,320,-25C353.3333333333333,-22.5,366.6666666666667,40.625,400,45C433.3333333333333,49.375,446.6666666666667,-1.291666666666667,480,-4C513.3333333333334,-6.708333333333333,526.6666666666666,35.958333333333336,560,32C593.3333333333334,28.041666666666668,606.6666666666666,-24.875,640,-23C673.3333333333334,-21.125,686.6666666666666,36.208333333333336,720,41C753.3333333333334,45.791666666666664,783.3333333333334,8.541666666666666,800,0" transform="matrix(1,0,0,1,0,1050)"></path><path d="M10,10C24.583333333333332,11.458333333333334,48.75,25.333333333333336,80,17C111.25,8.666666666666666,126.66666666666666,-33.333333333333336,160,-30C193.33333333333334,-26.666666666666668,206.66666666666666,31.958333333333332,240,33C273.3333333333333,34.041666666666664,286.6666666666667,-27.5,320,-25C353.3333333333333,-22.5,366.6666666666667,40.625,400,45C433.3333333333333,49.375,446.6666666666667,-1.291666666666667,480,-4C513.3333333333334,-6.708333333333333,526.6666666666666,35.958333333333336,560,32C593.3333333333334,28.041666666666668,606.6666666666666,-24.875,640,-23C673.3333333333334,-21.125,686.6666666666666,36.208333333333336,720,41C753.3333333333334,45.791666666666664,783.3333333333334,8.541666666666666,800,0" transform="matrix(1,0,0,1,0,900)"></path><path d="M10,10C24.583333333333332,11.458333333333334,48.75,25.333333333333336,80,17C111.25,8.666666666666666,126.66666666666666,-33.333333333333336,160,-30C193.33333333333334,-26.666666666666668,206.66666666666666,31.958333333333332,240,33C273.3333333333333,34.041666666666664,286.6666666666667,-27.5,320,-25C353.3333333333333,-22.5,366.6666666666667,40.625,400,45C433.3333333333333,49.375,446.6666666666667,-1.291666666666667,480,-4C513.3333333333334,-6.708333333333333,526.6666666666666,35.958333333333336,560,32C593.3333333333334,28.041666666666668,606.6666666666666,-24.875,640,-23C673.3333333333334,-21.125,686.6666666666666,36.208333333333336,720,41C753.3333333333334,45.791666666666664,783.3333333333334,8.541666666666666,800,0" transform="matrix(1,0,0,1,0,750)"></path><path d="M10,10C24.583333333333332,11.458333333333334,48.75,25.333333333333336,80,17C111.25,8.666666666666666,126.66666666666666,-33.333333333333336,160,-30C193.33333333333334,-26.666666666666668,206.66666666666666,31.958333333333332,240,33C273.3333333333333,34.041666666666664,286.6666666666667,-27.5,320,-25C353.3333333333333,-22.5,366.6666666666667,40.625,400,45C433.3333333333333,49.375,446.6666666666667,-1.291666666666667,480,-4C513.3333333333334,-6.708333333333333,526.6666666666666,35.958333333333336,560,32C593.3333333333334,28.041666666666668,606.6666666666666,-24.875,640,-23C673.3333333333334,-21.125,686.6666666666666,36.208333333333336,720,41C753.3333333333334,45.791666666666664,783.3333333333334,8.541666666666666,800,0" transform="matrix(1,0,0,1,0,600)"></path><path d="M10,10C24.583333333333332,11.458333333333334,48.75,25.333333333333336,80,17C111.25,8.666666666666666,126.66666666666666,-33.333333333333336,160,-30C193.33333333333334,-26.666666666666668,206.66666666666666,31.958333333333332,240,33C273.3333333333333,34.041666666666664,286.6666666666667,-27.5,320,-25C353.3333333333333,-22.5,366.6666666666667,40.625,400,45C433.3333333333333,49.375,446.6666666666667,-1.291666666666667,480,-4C513.3333333333334,-6.708333333333333,526.6666666666666,35.958333333333336,560,32C593.3333333333334,28.041666666666668,606.6666666666666,-24.875,640,-23C673.3333333333334,-21.125,686.6666666666666,36.208333333333336,720,41C753.3333333333334,45.791666666666664,783.3333333333334,8.541666666666666,800,0" transform="matrix(1,0,0,1,0,450)"></path><path d="M10,10C24.583333333333332,11.458333333333334,48.75,25.333333333333336,80,17C111.25,8.666666666666666,126.66666666666666,-33.333333333333336,160,-30C193.33333333333334,-26.666666666666668,206.66666666666666,31.958333333333332,240,33C273.3333333333333,34.041666666666664,286.6666666666667,-27.5,320,-25C353.3333333333333,-22.5,366.6666666666667,40.625,400,45C433.3333333333333,49.375,446.6666666666667,-1.291666666666667,480,-4C513.3333333333334,-6.708333333333333,526.6666666666666,35.958333333333336,560,32C593.3333333333334,28.041666666666668,606.6666666666666,-24.875,640,-23C673.3333333333334,-21.125,686.6666666666666,36.208333333333336,720,41C753.3333333333334,45.791666666666664,783.3333333333334,8.541666666666666,800,0" transform="matrix(1,0,0,1,0,300)"></path><path d="M10,10C24.583333333333332,11.458333333333334,48.75,25.333333333333336,80,17C111.25,8.666666666666666,126.66666666666666,-33.333333333333336,160,-30C193.33333333333334,-26.666666666666668,206.66666666666666,31.958333333333332,240,33C273.3333333333333,34.041666666666664,286.6666666666667,-27.5,320,-25C353.3333333333333,-22.5,366.6666666666667,40.625,400,45C433.3333333333333,49.375,446.6666666666667,-1.291666666666667,480,-4C513.3333333333334,-6.708333333333333,526.6666666666666,35.958333333333336,560,32C593.3333333333334,28.041666666666668,606.6666666666666,-24.875,640,-23C673.3333333333334,-21.125,686.6666666666666,36.208333333333336,720,41C753.3333333333334,45.791666666666664,783.3333333333334,8.541666666666666,800,0" transform="matrix(1,0,0,1,0,150)"></path></g></svg>