<?xml version="1.0" standalone="no"?>
<svg xmlns:xlink="http://www.w3.org/1999/xlink" id="wave" style="transition: 0.3s" viewBox="0 0 1440 220" version="1.1" xmlns="http://www.w3.org/2000/svg"><defs><linearGradient id="sw-gradient-0" x1="0" x2="0" y1="1" y2="0"><stop stop-color="#4f46e5" offset="0%"/><stop stop-color="#3730a3" offset="100%"/></linearGradient></defs><path style="transform:translate(0, 0px); opacity:1" fill="url(#sw-gradient-0)" d="M0,110L20,99C40,88,80,66,120,47.7C160,29,200,15,240,33C280,51,320,103,360,117.3C400,132,440,110,480,91.7C520,73,560,59,600,69.7C640,81,680,117,720,135.7C760,154,800,154,840,135.7C880,117,920,81,960,84.3C1000,88,1040,132,1080,139.3C1120,147,1160,117,1200,88C1240,59,1280,29,1320,40.3C1360,51,1400,103,1440,121C1480,139,1520,125,1560,132C1600,139,1640,169,1680,168.7C1720,169,1760,139,1800,121C1840,103,1880,95,1920,99C1960,103,2000,117,2040,117.3C2080,117,2120,103,2160,102.7C2200,103,2240,117,2280,135.7C2320,154,2360,176,2400,157.7C2440,139,2480,81,2520,80.7C2560,81,2600,139,2640,143C2680,147,2720,95,2760,66C2800,37,2840,29,2860,25.7L2880,22L2880,220L2860,220C2840,220,2800,220,2760,220C2720,220,2680,220,2640,220C2600,220,2560,220,2520,220C2480,220,2440,220,2400,220C2360,220,2320,220,2280,220C2240,220,2200,220,2160,220C2120,220,2080,220,2040,220C2000,220,1960,220,1920,220C1880,220,1840,220,1800,220C1760,220,1720,220,1680,220C1640,220,1600,220,1560,220C1520,220,1480,220,1440,220C1400,220,1360,220,1320,220C1280,220,1240,220,1200,220C1160,220,1120,220,1080,220C1040,220,1000,220,960,220C920,220,880,220,840,220C800,220,760,220,720,220C680,220,640,220,600,220C560,220,520,220,480,220C440,220,400,220,360,220C320,220,280,220,240,220C200,220,160,220,120,220C80,220,40,220,20,220L0,220Z"/></svg>