<?xml version="1.0" standalone="no"?>
<!DOCTYPE svg PUBLIC "-//W3C//DTD SVG 20010904//EN"
 "http://www.w3.org/TR/2001/REC-SVG-20010904/DTD/svg10.dtd">
<svg version="1.0" xmlns="http://www.w3.org/2000/svg"
 width="500.000000pt" height="500.000000pt" viewBox="0 0 500.000000 500.000000"
 preserveAspectRatio="xMidYMid meet">
<metadata>
Created by potrace 1.14, written by Peter Selinger 2001-2017
</metadata>
<g transform="translate(0.000000,500.000000) scale(0.100000,-0.100000)"
fill="#000000" stroke="none">
<path d="M2377 4884 c-1 -1 -40 -4 -87 -8 -94 -7 -131 -12 -205 -27 -27 -6
-62 -12 -76 -14 -98 -14 -418 -117 -456 -148 -7 -5 -13 -7 -13 -3 0 3 -57 -24
-127 -60 -473 -245 -840 -623 -1067 -1099 -51 -107 -52 -110 -84 -195 -68
-183 -113 -377 -138 -595 -20 -176 -4 -514 32 -688 11 -50 14 -66 25 -112 27
-123 95 -315 159 -450 49 -105 189 -345 202 -345 4 0 8 -5 8 -11 0 -36 283
-347 413 -454 26 -22 62 -52 80 -67 18 -15 35 -28 39 -28 4 0 13 -6 20 -13 54
-53 297 -190 478 -270 132 -58 380 -129 535 -151 23 -4 52 -8 65 -11 94 -18
391 -26 527 -13 452 42 898 214 1238 478 39 30 76 59 84 65 58 45 284 279 346
360 82 106 165 228 165 245 0 6 4 10 9 10 11 0 131 243 176 358 33 84 79 228
90 277 2 11 13 62 24 113 11 51 23 114 26 140 51 469 4 833 -161 1252 -31 78
-94 155 -130 158 -47 5 -89 0 -103 -11 -8 -7 -16 -10 -19 -7 -3 3 -19 -12 -36
-33 -42 -52 -43 -126 -3 -209 28 -59 95 -253 103 -298 3 -14 8 -34 11 -45 9
-25 8 -20 18 -85 5 -30 9 -57 10 -60 16 -57 25 -185 25 -345 0 -148 -6 -218
-34 -375 -20 -110 -82 -315 -124 -410 -30 -68 -92 -195 -114 -235 -157 -274
-393 -526 -663 -706 -78 -52 -304 -171 -375 -198 -128 -48 -326 -103 -420
-116 -25 -3 -52 -8 -60 -10 -86 -23 -415 -23 -570 -1 -157 22 -352 71 -448
112 -20 9 -45 17 -54 19 -16 4 -211 98 -258 126 -35 21 -244 161 -250 168 -3
3 -34 31 -70 61 -95 80 -192 182 -303 319 -27 33 -132 194 -152 232 -110 213
-161 341 -201 497 -76 299 -89 585 -40 882 19 110 80 336 98 358 6 6 8 12 5
12 -10 0 60 156 115 260 104 196 209 334 382 505 227 224 484 383 781 483 152
52 226 70 340 87 23 3 52 8 65 10 14 3 81 8 150 11 180 8 208 18 249 84 47 78
7 188 -79 216 -20 6 -166 13 -173 8z"/>
<path d="M3440 4846 c-31 -6 -76 -24 -102 -39 -49 -29 -119 -101 -142 -149
-14 -27 -34 -112 -35 -150 -1 -10 -1 -24 -2 -30 0 -7 0 -44 0 -83 0 -38 0 -78
0 -87 0 -10 0 -117 1 -238 0 -308 0 -830 -1 -872 0 -7 0 -44 0 -83 0 -38 0
-77 0 -85 0 -8 0 -51 1 -95 2 -119 1 -125 -14 -125 -7 0 -20 7 -27 16 -31 38
-170 121 -274 163 -127 53 -374 77 -510 50 -27 -6 -61 -12 -74 -15 -41 -8
-185 -66 -213 -85 -14 -11 -29 -19 -33 -19 -3 0 -36 -21 -72 -47 -126 -90
-235 -218 -306 -359 -28 -55 -72 -187 -81 -244 -3 -19 -8 -46 -11 -60 -7 -30
-7 -181 0 -230 3 -28 13 -87 20 -120 6 -30 52 -154 72 -194 114 -229 327 -415
559 -490 51 -17 59 -19 149 -37 52 -10 231 -14 275 -5 14 3 43 7 64 11 58 8
206 60 262 91 27 15 58 32 69 38 11 6 22 13 25 16 3 3 23 18 45 35 57 42 144
131 192 195 34 45 116 191 118 210 1 3 10 34 22 70 22 65 26 86 39 170 4 25 8
608 8 1297 1 1438 -10 1299 97 1269 78 -21 183 -71 274 -131 131 -85 268 -148
405 -186 25 -7 48 -12 51 -11 4 1 22 -3 40 -8 26 -8 159 -23 199 -22 47 0 65
7 99 37 43 39 61 91 50 144 -16 77 -73 116 -181 125 -167 13 -326 69 -473 163
-140 91 -225 134 -348 174 -105 34 -163 40 -237 25z m-732 -2129 c189 -66 332
-204 405 -387 31 -80 38 -113 42 -218 12 -316 -204 -594 -517 -665 -83 -18
-230 -15 -312 7 -355 98 -563 469 -461 822 48 168 182 328 336 402 121 59 182
72 319 68 93 -2 129 -8 188 -29z"/>
</g>
</svg>
